<?xml version="1.0" standalone="no"?>
<!DOCTYPE svg PUBLIC "-//W3C//DTD SVG 20010904//EN"
 "http://www.w3.org/TR/2001/REC-SVG-20010904/DTD/svg10.dtd">
<svg version="1.0" xmlns="http://www.w3.org/2000/svg"
 width="1009.000000pt" height="1086.000000pt" viewBox="0 0 1009.000000 1086.000000"
 preserveAspectRatio="xMidYMid meet">

<g transform="translate(0.000000,1086.000000) scale(0.100000,-0.100000)"
fill="#000000" stroke="none">
<path d="M5080 7832 l0 -1499 -1240 -564 c-682 -310 -1239 -567 -1238 -571 2
-4 562 -338 1246 -742 l1242 -734 1243 734 c683 404 1243 738 1245 743 4 11
-2475 4125 -2488 4129 -7 2 -10 -535 -10 -1496z"/>
<path d="M6323 4113 l-1243 -736 0 -1013 c0 -572 4 -1014 9 -1014 5 0 552 766
1217 1703 664 936 1223 1723 1242 1750 19 26 30 47 25 46 -4 -1 -567 -332
-1250 -736z"/>
</g>
</svg>
